<?xml version="1.0" encoding="UTF-8"?>
<svg version="1.1" xmlns="http://www.w3.org/2000/svg" width="500" height="500">
<path d="M0 0 C165 0 330 0 500 0 C500 165 500 330 500 500 C335 500 170 500 0 500 C0 335 0 170 0 0 Z " fill="#FCFCFC" transform="translate(0,0)"/>
<path d="M0 0 C1.50081776 3.13593587 2.97145767 6.2851753 4.4375 9.4375 C4.85837891 10.31599609 5.27925781 11.19449219 5.71289062 12.09960938 C8.36793804 17.85575217 9.64547384 22.66365065 10 29 C9.16855469 29.33773437 8.33710938 29.67546875 7.48046875 30.0234375 C6.39378906 30.46945313 5.30710937 30.91546875 4.1875 31.375 C3.10855469 31.81585938 2.02960938 32.25671875 0.91796875 32.7109375 C-2.10730112 33.9479119 -2.10730112 33.9479119 -5 36 C-5.25030977 38.58380177 -5.25030977 38.58380177 -5 41 C-1.53058454 40.54177532 1.67395049 40.10868317 5 39 C16.17910448 38.08955224 16.17910448 38.08955224 21.5 40.75 C22.325 41.4925 23.15 42.235 24 43 C24.77214844 43.5775 25.54429687 44.155 26.33984375 44.75 C29.34999762 47.29603323 31.68763531 50.13112237 34.0625 53.25 C34.52495117 53.85336182 34.98740234 54.45672363 35.46386719 55.07836914 C36.45395585 56.37186673 37.44201586 57.66691921 38.42822266 58.96337891 C40.06070405 61.07865691 41.73510621 63.15511294 43.41796875 65.23046875 C44.52925262 66.6323317 45.63994345 68.034665 46.75 69.4375 C47.28761963 70.08686523 47.82523926 70.73623047 48.37915039 71.40527344 C51.07032122 74.86566727 52.0215336 76.25478352 51.890625 80.78515625 C51.31252045 82.87191083 50.68474444 84.94576667 50 87 C49.20251184 96.45881532 48.67765357 104.19472623 54.78515625 112.01953125 C56 114 56 114 55.79418945 115.9921875 C54.7914054 118.52735384 53.93907721 118.94684285 51.5078125 120.10546875 C50.80269531 120.44900391 50.09757813 120.79253906 49.37109375 121.14648438 C48.25927734 121.66178711 48.25927734 121.66178711 47.125 122.1875 C46.39152344 122.54263672 45.65804687 122.89777344 44.90234375 123.26367188 C35.36772873 127.83993974 24.83519663 128.69927408 14.49609375 126.12890625 C8.46654242 123.7312359 3.29442049 120.39238904 -1.84375 116.453125 C-3.95515384 115.03022241 -5.51285004 114.42959863 -8 114 C-7.02225385 117.73321256 -5.94634536 120.23446237 -3.3125 123 C-1 126 -1 126 -0.9375 129.25 C-2 132 -2 132 -3.625 133.375 C-8.4013026 134.63192174 -11.94450911 134.52470893 -16.39453125 132.3125 C-17.54577118 131.55958077 -18.684864 130.78783106 -19.8125 130 C-20.41924561 129.59209229 -21.02599121 129.18418457 -21.65112305 128.76391602 C-26.99759407 125.12029566 -32.06192575 121.17901216 -37 117 C-37.804375 116.36449219 -38.60875 115.72898437 -39.4375 115.07421875 C-48.09037625 107.97259827 -51.44044797 99.94014113 -53 89 C-54.65 88.67 -56.3 88.34 -58 88 C-58.33 90.97 -58.66 93.94 -59 97 C-77.27158592 97.50135449 -77.27158592 97.50135449 -84.3125 91.8125 C-89.27199569 87.06736365 -91.11729095 82.58112633 -91.4375 75.75 C-91.04300535 63.2119309 -84.21776738 51.92833556 -75.7109375 43.08203125 C-74 42 -74 42 -72.1171875 42.0078125 C-69.03236491 43.45346737 -67.10250915 45.61712864 -64.75 48.0625 C-63.85796875 48.98160156 -62.9659375 49.90070313 -62.046875 50.84765625 C-61.37140625 51.55792969 -60.6959375 52.26820313 -60 53 C-61.57848012 56.62371511 -63.82155261 59.31368388 -66.375 62.3125 C-72.62898806 69.70109757 -72.62898806 69.70109757 -75.5625 78.75 C-75.34460601 82.18268397 -75.34460601 82.18268397 -72.5 83.9375 C-71.675 84.288125 -70.85 84.63875 -70 85 C-69.85304688 84.443125 -69.70609375 83.88625 -69.5546875 83.3125 C-65.85677646 70.73110151 -56.9661912 63.09952977 -45.9375 56.6875 C-45.36 56.34976563 -44.7825 56.01203125 -44.1875 55.6640625 C-40.18632691 53.42304265 -36.4113975 52.10706409 -32 51 C-31.70867187 51.66644531 -31.41734375 52.33289063 -31.1171875 53.01953125 C-26.11177337 64.58500614 -26.11177337 64.58500614 -19.3203125 75.12890625 C-18 77 -18 77 -18 80 C-20.01171875 81.7265625 -20.01171875 81.7265625 -22.6875 83.625 C-28.9146436 88.44089293 -32.64213629 93.51646015 -33.9375 101.375 C-34.34554042 105.09806415 -34.34554042 105.09806415 -32 108 C-28.91634129 108.2502157 -28.91634129 108.2502157 -26 108 C-26.020625 107.29875 -26.04125 106.5975 -26.0625 105.875 C-25.93765463 100.13211306 -25.38374107 96.66482183 -21.25 92.5 C-15.18951947 87.24036868 -15.18951947 87.24036868 -12 86 C-8.03259338 87.38337205 -5.24273842 90.35450108 -2.25 93.1875 C-1.18419294 94.18033112 -0.11778533 95.17251794 0.94921875 96.1640625 C1.46790527 96.6477832 1.9865918 97.13150391 2.52099609 97.62988281 C4.50854199 99.47110229 6.52802159 101.27336685 8.5625 103.0625 C9.16191406 103.58972656 9.76132813 104.11695313 10.37890625 104.66015625 C13.90260459 107.57251416 16.52943284 108.40392438 21 109 C19.82098126 103.25228363 16.62989293 100.22306468 12.58203125 96.24609375 C11 94 11 94 11.046875 91.45703125 C12.12057992 88.68916077 13.28301131 87.27459229 15.4375 85.25 C16.36369141 84.36054688 16.36369141 84.36054688 17.30859375 83.453125 C19.49298797 81.57646299 20.75203829 81.0354231 23.625 80.625 C27.74630574 81.08292286 29.82147974 82.63558101 33.0703125 85.1015625 C33.70710938 85.39804687 34.34390625 85.69453125 35 86 C37.2346902 85.24282594 37.2346902 85.24282594 39 84 C38.7473068 80.58864174 37.76495524 79.78062489 35.1875 77.375 C30.18544298 73.64797713 26.83142198 72.42088169 20.59765625 72.55859375 C14.47433362 73.5990982 10.51773174 78.03688716 7 82.875 C6.34 83.90625 5.68 84.9375 5 86 C0.90632667 85.49175613 -0.68884268 83.48988996 -3.3125 80.4375 C-4.09753906 79.53 -4.88257813 78.6225 -5.69140625 77.6875 C-6.45324219 76.800625 -7.21507812 75.91375 -8 75 C-8.64839844 74.29875 -9.29679687 73.5975 -9.96484375 72.875 C-21.68900549 60.15030805 -23.67120465 46.91430381 -23.12744141 30.19775391 C-22.42056668 18.00755035 -14.85714018 9.25703895 -6.11328125 1.3984375 C-4 0 -4 0 0 0 Z " fill="#0B0B0B" transform="translate(176,178)"/>
<path d="M0 0 C6.98805451 0.9596272 12.45364199 5.72703343 16.8125 11.125 C22.24407863 19.7249995 23.36297861 28.75423678 23.4375 38.6875 C23.4475708 39.55391113 23.4576416 40.42032227 23.46801758 41.31298828 C23.21065935 60.55462244 10.9025639 73.21830321 -2 86 C-5 85 -5 85 -6.8125 82.25 C-9.76345567 77.86572301 -12.87224474 74.70925175 -18 73 C-24.88504119 72.0181981 -29.6611312 73.05339168 -35.28125 77.19921875 C-38.00498389 80.05294903 -38.07740344 82.12982803 -38 86 C-34.62001455 85.60235465 -32.93850092 84.95588109 -30.125 82.9375 C-26.31884096 80.57768139 -24.40848266 80.37021676 -20 81 C-15.24104594 83.42613344 -12.43050611 86.23620802 -10 91 C-10.37628982 96.21788554 -13.05484018 98.49544326 -16.6015625 102.03515625 C-18.27016545 103.90884377 -18.27016545 103.90884377 -17.7109375 106.24609375 C-17.35902344 107.11427734 -17.35902344 107.11427734 -17 108 C-12.49809582 107.50334865 -10.38818814 105.95052876 -7.125 102.875 C-5.82369141 101.65876953 -5.82369141 101.65876953 -4.49609375 100.41796875 C-2.37214202 98.36049439 -0.26926703 96.28748819 1.8125 94.1875 C8.90772521 87.05904188 8.90772521 87.05904188 12.3125 86.875 C17.31952035 88.97096201 21.40507699 92.20571162 25 96.25 C26.52894494 100.45459858 26.23200197 104.57477717 26 109 C30.41522109 107.73025028 30.41522109 107.73025028 34 105 C34.68931049 99.28857022 34.00230724 95.83480255 30.78125 91.078125 C27.87019125 87.68188979 24.41963592 84.93881967 20.9140625 82.17578125 C19 80 19 80 19.01171875 77.54296875 C20.1095912 74.71800841 21.46500941 72.4943793 23.1875 70 C27.18951144 63.93910251 30.1104627 57.65757862 33 51 C46.32002 55.05905935 61.06397598 64.66243436 68.1484375 77 C69.30396047 79.7138888 69.1324783 82.08547746 69 85 C72.72614153 83.88145414 72.72614153 83.88145414 75 81 C75.45735689 74.2396935 73.18517104 70.19469602 68.92578125 65.1328125 C67.6869866 63.76084114 66.43528035 62.40036165 65.16796875 61.0546875 C64.61753906 60.45914063 64.06710937 59.86359375 63.5 59.25 C62.9946875 58.73953125 62.489375 58.2290625 61.96875 57.703125 C61 56 61 56 61.078125 53.5703125 C62.22809257 50.36404698 63.71493659 48.88305317 66.25 46.625 C67.40242188 45.56152344 67.40242188 45.56152344 68.578125 44.4765625 C71 43 71 43 73.515625 43 C80.4297429 45.78304117 84.99111791 53.36741781 88 59.875 C91.24965791 67.61550461 92.59348086 75.60152513 90.1640625 83.83203125 C87.48981356 89.81768239 84.11648945 93.50938403 78 96 C74.06081634 97.03767086 70.31345833 97.13419334 66.25 97.125 C65.10015625 97.12757813 63.9503125 97.13015625 62.765625 97.1328125 C60 97 60 97 59 96 C58.63239269 93.67182036 58.29758419 91.3381615 58 89 C56.35 89 54.7 89 53 89 C52.85304688 89.75023437 52.70609375 90.50046875 52.5546875 91.2734375 C49.12269865 106.93435212 40.64132144 115.75217809 27.875 124.75 C27.08996094 125.31332031 26.30492187 125.87664062 25.49609375 126.45703125 C14.04835508 134.62295614 14.04835508 134.62295614 7.09375 134.4375 C5 134 5 134 2.4375 131.5 C1.963125 130.675 1.48875 129.85 1 129 C2.00510275 125.98469174 2.78379925 124.20348306 5.125 122 C7.27339895 120.11928416 7.27339895 120.11928416 7.25 117.25 C7.1675 116.5075 7.085 115.765 7 115 C3.40722685 115.61379951 1.30263422 117.10818751 -1.5625 119.3125 C-12.10116211 126.74615716 -23.26803207 128.95539177 -36 127 C-40.42907583 125.54459408 -44.12942735 123.57836899 -48 121 C-48.75410156 120.50113281 -49.50820313 120.00226563 -50.28515625 119.48828125 C-51.89138296 118.37382176 -53.45304608 117.19537348 -55 116 C-54.31976269 112.6683832 -53.06267812 109.94928951 -51.5 106.9375 C-47.41442562 99.03951465 -46.78637944 92.23796477 -49.5 83.6875 C-49.7784375 82.90761719 -50.056875 82.12773437 -50.34375 81.32421875 C-51.13748337 78.51307974 -51.49667257 76.91211438 -51 74 C-49.31562241 71.26455509 -47.27347405 68.87414604 -45.1875 66.4375 C-44.6001709 65.73512207 -44.0128418 65.03274414 -43.40771484 64.30908203 C-21.8862542 38.75851599 -21.8862542 38.75851599 -14.8359375 37.6640625 C-9.0821216 37.57273209 -5.0207343 38.45377227 0.08984375 41.125 C2.10440495 42.20823132 2.10440495 42.20823132 5 42 C5 40.02 5 38.04 5 36 C-0.82739454 32.60393101 -0.82739454 32.60393101 -7 29.9375 C-9 29 -9 29 -9.72387695 27.24414062 C-10.07188706 24.41575078 -9.45825097 22.80210181 -8.41796875 20.15625 C-8.06283203 19.23972656 -7.70769531 18.32320312 -7.34179688 17.37890625 C-6.96087891 16.42886719 -6.57996094 15.47882813 -6.1875 14.5 C-5.81818359 13.54996094 -5.44886719 12.59992188 -5.06835938 11.62109375 C-3.51762327 7.66212295 -1.95176556 3.78062807 0 0 Z " fill="#0C0C0C" transform="translate(329,178)"/>
<path d="M0 0 C2.5 1.5625 2.5 1.5625 4 4 C4.5 7.5 4.5 7.5 4 11 C0.97945984 14.85585004 -2.758958 16.41393342 -7.1875 18.1875 C-22.19270734 24.51092607 -35.90724554 32.31872789 -49 42 C-49.96284912 42.70318359 -50.92569824 43.40636719 -51.91772461 44.13085938 C-60.28969165 50.33883184 -67.74265974 57.21879472 -75.0625 64.625 C-75.63060394 65.19681 -76.19870789 65.76862 -76.7840271 66.35775757 C-85.37218582 75.02561937 -93.34681456 83.73089984 -100 94 C-100.51771973 94.78084961 -101.03543945 95.56169922 -101.56884766 96.36621094 C-119.64153115 123.77917865 -131.50283707 153.59567116 -137 186 C-137.17063965 186.95132813 -137.3412793 187.90265625 -137.51708984 188.8828125 C-139.20558988 199.22241879 -139.39547382 209.41874264 -139.375 219.875 C-139.37545319 220.77641724 -139.37590637 221.67783447 -139.37637329 222.60656738 C-139.35498045 237.12088951 -138.26125478 250.81554343 -135 265 C-134.73832031 266.26585937 -134.47664063 267.53171875 -134.20703125 268.8359375 C-132.52591635 276.65637254 -130.34388184 284.35468361 -128 292 C-127.51466797 293.59521484 -127.51466797 293.59521484 -127.01953125 295.22265625 C-121.55000157 311.78921005 -113.09253988 327.78896163 -103 342 C-102.32565918 342.95398682 -102.32565918 342.95398682 -101.63769531 343.92724609 C-94.73876128 353.5983652 -87.27398883 362.48477892 -79 371 C-78.53207031 371.48839355 -78.06414062 371.97678711 -77.58203125 372.47998047 C-67.9299324 382.54100927 -57.32619034 390.91895409 -46 399 C-43.9978624 400.43452127 -41.99781755 401.8719684 -40 403.3125 C-38.6696875 404.26576172 -38.6696875 404.26576172 -37.3125 405.23828125 C-32.12299065 409.1917757 -32.12299065 409.1917757 -31.5625 412.875 C-32.11874056 416.84814684 -32.89497089 418.43835098 -36 421 C-50.30868592 422.00411831 -66.09220845 404.87782778 -76.48095703 395.94995117 C-88.88345997 385.06915439 -100.32858649 373.38235309 -110 360 C-111.16402344 358.40091797 -111.16402344 358.40091797 -112.3515625 356.76953125 C-125.5513581 338.14920103 -136.6746558 317.66759706 -144 296 C-144.24057129 295.28924316 -144.48114258 294.57848633 -144.72900391 293.84619141 C-164.49538408 234.88890304 -158.53264734 169.51832056 -131 114 C-121.97351945 96.09804652 -110.88767598 79.44973131 -97.42773438 64.57910156 C-96.03701788 63.04094248 -94.66568798 61.48733673 -93.296875 59.9296875 C-74.82901285 39.1047296 -30.64954401 -4.22752331 0 0 Z " fill="#0B0B0B" transform="translate(166,29)"/>
<path d="M0 0 C36.9565005 7.91376206 75.17682422 42.8613035 97.7578125 71.8046875 C98.20350586 72.36333496 98.64919922 72.92198242 99.10839844 73.49755859 C132.43605407 115.36871415 149.19612486 166.06228696 149.07348633 219.25561523 C149.07032597 222.10504501 149.09391255 224.95343152 149.11914062 227.80273438 C149.22088045 257.64759123 143.03263462 286.58946527 130.7578125 313.8046875 C130.45536621 314.4857959 130.15291992 315.1669043 129.84130859 315.86865234 C121.59318121 334.34014806 111.34511457 350.97872032 98.7578125 366.8046875 C98.08564697 367.65256836 98.08564697 367.65256836 97.39990234 368.51757812 C86.60661974 382.00218314 74.44543149 394.17169507 60.56542969 404.46337891 C58.64240826 405.89032106 56.73534931 407.33718256 54.828125 408.78515625 C53.51395075 409.77207282 52.1988691 410.75778244 50.8828125 411.7421875 C50.28855469 412.19110352 49.69429688 412.64001953 49.08203125 413.10253906 C44.02470544 416.82795223 38.75972208 420.40820888 32.4453125 421.2421875 C29.7578125 420.8046875 29.7578125 420.8046875 27.8828125 419.8046875 C26.43586566 417.23233757 25.9086002 414.92338951 26.04296875 411.97265625 C27.64976096 407.0995979 32.70634247 404.57030054 36.7578125 401.8046875 C39.01413959 400.23028467 41.26197084 398.64400418 43.5078125 397.0546875 C44.09965332 396.63687012 44.69149414 396.21905273 45.30126953 395.78857422 C62.3631566 383.60806597 77.41288904 368.72500217 89.7578125 351.8046875 C90.20721191 351.19431641 90.65661133 350.58394531 91.11962891 349.95507812 C125.64230092 302.68387771 139.72548333 243.16646417 130.72265625 185.3203125 C130.40856075 183.48047136 130.08700474 181.64188751 129.7578125 179.8046875 C129.59684082 178.89396484 129.43586914 177.98324219 129.27001953 177.04492188 C125.41836875 156.16238874 117.81248254 136.45930936 107.7578125 117.8046875 C107.23445313 116.804375 106.71109375 115.8040625 106.171875 114.7734375 C96.74126055 97.00995209 84.73918044 81.19929784 70.7578125 66.8046875 C70.20867187 66.22976562 69.65953125 65.65484375 69.09375 65.0625 C60.89107773 56.48527648 52.36800319 48.77474525 42.7578125 41.8046875 C42.19578125 41.39299316 41.63375 40.98129883 41.0546875 40.55712891 C28.8681651 31.73517677 15.42441769 24.96612502 1.90917969 18.42626953 C1.01231445 17.99040527 0.11544922 17.55454102 -0.80859375 17.10546875 C-1.61111572 16.72173096 -2.4136377 16.33799316 -3.24047852 15.94262695 C-6.0261701 14.35900597 -7.18830052 12.81579316 -8.2421875 9.8046875 C-8.7421875 7.3046875 -8.7421875 7.3046875 -8.2421875 4.8046875 C-5.65705881 1.20117478 -4.54345117 -0.27370188 0 0 Z " fill="#0D0D0D" transform="translate(344.2421875,28.1953125)"/>
<path d="M0 0 C9.64028732 5.86800098 13.35628893 22.4779771 16 33 C16.81496137 36.9861323 17.48787233 40.96412818 18 45 C20.97 45.33 23.94 45.66 27 46 C26.69188262 43.54104382 26.37871012 41.08291693 26.0625 38.625 C25.97548828 37.92632812 25.88847656 37.22765625 25.79882812 36.5078125 C25.33681872 32.63216425 25.33681872 32.63216425 24 29 C23.95977609 26.6670134 23.95679753 24.33293334 24 22 C26.07573081 20.79715599 28.15883095 19.61294299 30.25 18.4375 C30.83652344 18.09525391 31.42304688 17.75300781 32.02734375 17.40039062 C34.46558686 16.04428912 36.39127503 14.9967849 39.21875 15.01171875 C41.68727613 16.38131768 42.71411533 18.01152699 44.25 20.375 C44.85457031 21.27476563 45.45914063 22.17453125 46.08203125 23.1015625 C46.71496094 24.05804688 47.34789062 25.01453125 48 26 C53.69359071 34.46622106 58.8202881 40.41014405 68 45 C68 59.85 68 74.7 68 90 C64.7 91.32 61.4 92.64 58 94 C51.97511049 97.78707341 48.20386185 101.11999539 46 108 C45.65987041 110.83690837 45.65987041 110.83690837 46 113 C48.31 113 50.62 113 53 113 C53.350625 111.7625 53.70125 110.525 54.0625 109.25 C55.2768835 106.01928162 56.35074909 104.30850277 59.3125 102.5 C62.97839074 101.00879021 65.12520487 100.86883627 69 101 C69.19826372 105.75032241 69.34314101 110.49822432 69.43945312 115.25170898 C69.4796058 116.86704458 69.53414477 118.48209078 69.60351562 120.09643555 C70.16252169 133.44270532 70.16252169 133.44270532 67.359375 137.19775391 C64.38780947 139.17716844 61.68983948 139.8604819 58.21875 140.5625 C55.15938026 139.78688514 54.34312681 138.54686614 52.5 136 C51.81421875 135.09121094 51.1284375 134.18242187 50.421875 133.24609375 C50.04095703 132.73288574 49.66003906 132.21967773 49.26757812 131.69091797 C46.82440021 128.43177886 44.29542131 125.24211887 41.75 122.0625 C40.92350952 121.02790649 40.92350952 121.02790649 40.08032227 119.97241211 C36.49960755 115.58376785 32.72478335 111.75497346 28.4375 108.0625 C23.51680094 103.73746451 20.9462917 100.20309342 19 94 C18.41821387 92.58269724 17.83493041 91.166008 17.25 89.75 C15.47537473 84.4261242 15.47537473 84.4261242 16 81 C18.1171875 79.015625 18.1171875 79.015625 20.875 77.25 C22.23238281 76.36054688 22.23238281 76.36054688 23.6171875 75.453125 C29.14829454 72.08005644 34.62531324 72.53355951 41 73 C44.5 74.5 44.5 74.5 47 76 C49.75146274 76.25284367 49.75146274 76.25284367 52 76 C52.67154684 73.71658257 52.67154684 73.71658257 52 71 C44.91065114 65.03437077 36.99146992 63.97707754 27.97460938 64.64794922 C23.56579978 65.43399069 20.07219507 68.02346325 16.48828125 70.56640625 C14 72 14 72 12.03076172 72.00415039 C8.83764467 70.42525036 8.18309392 67.54033494 7.01953125 64.3671875 C6.76121017 63.69712677 6.5028891 63.02706604 6.23674011 62.33670044 C5.6924608 60.91544473 5.15581058 59.49124755 4.6262207 58.06445312 C3.82099884 55.89786756 2.99191796 53.74169645 2.15820312 51.5859375 C1.63136376 50.2010711 1.10592854 48.81566956 0.58203125 47.4296875 C0.21486748 46.47145584 0.21486748 46.47145584 -0.15971375 45.49386597 C-1.70617579 41.29611565 -2.5074543 37.41551058 -3 33 C-1.68 32.34 -0.36 31.68 1 31 C0.41825155 25.6913151 0.41825155 25.6913151 -2 21 C-2.99 21 -3.98 21 -5 21 C-5.66 21.99 -6.32 22.98 -7 24 C-10 23 -10 23 -11.8125 20.5 C-14.50927476 17.41797171 -16.04843875 17.47440299 -20 17 C-19.69707031 17.78761719 -19.39414063 18.57523438 -19.08203125 19.38671875 C-18.66308594 20.47597656 -18.24414062 21.56523438 -17.8125 22.6875 C-17.35488281 23.87472656 -16.89726562 25.06195313 -16.42578125 26.28515625 C-15.52027489 28.64443448 -14.62108852 31.00615571 -13.73046875 33.37109375 C-11.75586695 38.59281852 -9.70804935 43.70599873 -7.3125 48.75 C-5.11333162 53.45953983 -3.92125555 57.89121922 -3 63 C-8.14347487 62.5048846 -11.70945104 61.38653394 -16.16796875 58.796875 C-17.30943359 58.14589844 -18.45089844 57.49492187 -19.62695312 56.82421875 C-20.81434023 56.13373709 -22.00118779 55.4423268 -23.1875 54.75 C-31.57379643 49.88354632 -39.92610605 45.48334808 -49 42 C-46.99996902 28.30564215 -36.77425341 16.36899478 -26.3203125 7.8046875 C-17.94137249 1.71785874 -10.50959496 -1.50137071 0 0 Z " fill="#0B0B0B" transform="translate(175,104)"/>
<path d="M0 0 C16.43847133 6.07678087 27.88598674 18.76480606 35.953125 33.84765625 C37.53515625 37.3515625 37.53515625 37.3515625 37.53515625 41.3515625 C36.92414063 41.56167969 36.313125 41.77179688 35.68359375 41.98828125 C27.03487497 45.26504935 19.34617963 49.84663009 11.45458984 54.62963867 C-2.95265084 63.3515625 -2.95265084 63.3515625 -8.46484375 63.3515625 C-8.13752244 59.31459964 -6.99453604 56.14956936 -5.27734375 52.5390625 C-2.6406684 46.96765284 -0.59240381 41.28061788 1.39135742 35.45385742 C2.54145311 32.09321885 3.74011011 28.80284093 5.171875 25.55078125 C6.50066458 22.43250428 7.12643683 19.70306171 7.53515625 16.3515625 C2.96759429 17.2299398 1.01447951 17.7370455 -1.90234375 21.4765625 C-2.41796875 22.4253125 -2.93359375 23.3740625 -3.46484375 24.3515625 C-3.85671875 23.8565625 -4.24859375 23.3615625 -4.65234375 22.8515625 C-7.0157609 20.89563107 -8.47919378 21.10948277 -11.46484375 21.3515625 C-12.96787592 23.73873124 -13.47895828 25.06221456 -13.33984375 27.9140625 C-12.2888745 30.84176256 -11.07761833 31.75018453 -8.46484375 33.3515625 C-9.99686369 41.75921412 -13.00917524 49.4841576 -16.08984375 57.4140625 C-16.61125549 58.76996001 -17.13209343 60.12607831 -17.65234375 61.48242188 C-18.91657407 64.77470652 -20.18853567 68.06393816 -21.46484375 71.3515625 C-24.97785788 70.57197097 -27.30562545 69.23963141 -30.33984375 67.2890625 C-37.00276534 63.59238809 -42.99511239 63.30456835 -50.46484375 64.3515625 C-55.15307989 65.71266331 -59.3306785 67.48806319 -62.46484375 71.3515625 C-62.23440511 74.00622299 -62.23440511 74.00622299 -61.46484375 76.3515625 C-58.38733343 75.88527306 -56.14963876 75.19396 -53.33984375 73.7890625 C-48.47371681 71.67794452 -43.66383848 71.44955112 -38.46484375 72.3515625 C-33.94934416 74.3687324 -29.96663268 76.84977357 -26.46484375 80.3515625 C-27.07794767 88.81873908 -29.64709028 99.6323317 -35.88671875 105.7109375 C-37.71857989 106.94982625 -39.57832013 108.14828672 -41.4609375 109.30859375 C-50.64267657 115.5531315 -57.73857965 125.66856702 -64.46484375 134.3515625 C-65.79588959 136.02005659 -67.12865361 137.6871853 -68.46484375 139.3515625 C-71.86797113 138.29281176 -74.47837606 137.34254096 -77.46484375 135.3515625 C-77.73182263 132.72694006 -77.81317359 130.34090317 -77.7578125 127.71875 C-77.75356766 126.96691437 -77.74932281 126.21507874 -77.74494934 125.44046021 C-77.72813545 123.03546565 -77.69047999 120.63130441 -77.65234375 118.2265625 C-77.63730034 116.59766834 -77.62361133 114.96876106 -77.61132812 113.33984375 C-77.57822329 109.34342816 -77.52642384 105.34763668 -77.46484375 101.3515625 C-73.17623048 100.13701382 -71.2513752 100.85294639 -67.34765625 102.8984375 C-64.60875703 105.01227673 -63.76376689 107.50980767 -62.47265625 110.64453125 C-61.49249939 112.74242209 -61.49249939 112.74242209 -58.21484375 113.3515625 C-57.30734375 113.3515625 -56.39984375 113.3515625 -55.46484375 113.3515625 C-56.38432419 107.22975852 -57.18032644 102.06453154 -61.46484375 97.3515625 C-66.21065213 94.01102733 -71.07248079 91.46780212 -76.46484375 89.3515625 C-76.66811397 83.05329707 -76.80795434 76.75587997 -76.90429688 70.45507812 C-76.94446603 68.31315506 -76.99901481 66.17145052 -77.06835938 64.03027344 C-77.16570469 60.9467175 -77.21083406 57.86606486 -77.24609375 54.78125 C-77.28738403 53.82789764 -77.32867432 52.87454529 -77.37121582 51.89230347 C-77.37561282 45.3396763 -77.37561282 45.3396763 -74.74926758 42.49029541 C-72.62695312 40.91064453 -72.62695312 40.91064453 -70.51696777 39.62698364 C-63.30421082 35.1441636 -59.11453202 26.85178593 -54.92822266 19.72314453 C-51.77852026 14.45612134 -51.77852026 14.45612134 -48.46484375 13.3515625 C-45.80078125 14.75 -45.80078125 14.75 -42.83984375 16.7265625 C-41.85757813 17.37367187 -40.8753125 18.02078125 -39.86328125 18.6875 C-37.46484375 20.3515625 -37.46484375 20.3515625 -36.46484375 21.3515625 C-36.23402211 27.4683359 -36.23402211 27.4683359 -36.9375 30.16015625 C-37.65184081 33.12863918 -37.81428813 36.05791076 -38.02734375 39.1015625 C-38.11113281 40.27203125 -38.19492187 41.4425 -38.28125 42.6484375 C-38.37212891 43.98648438 -38.37212891 43.98648438 -38.46484375 45.3515625 C-35.82484375 45.0215625 -33.18484375 44.6915625 -30.46484375 44.3515625 C-29.43372758 41.0202641 -28.54097897 37.76601691 -27.91015625 34.33203125 C-26.63709198 27.45591253 -24.87679514 21.31514264 -22.08984375 14.9140625 C-21.80987549 14.26445557 -21.52990723 13.61484863 -21.24145508 12.94555664 C-16.59281678 2.69171055 -11.87423074 -3.12380714 0 0 Z " fill="#0C0D0D" transform="translate(341.46484375,104.6484375)"/>
<path d="M0 0 C2 2 2 2 2 5 C1.33282959 5.13986328 0.66565918 5.27972656 -0.02172852 5.42382812 C-58.69471805 17.89741592 -109.27638947 46.7308468 -142.62255859 97.8203125 C-146.75391765 104.3578477 -150.43006879 111.14364143 -154 118 C-154.32452148 118.61633301 -154.64904297 119.23266602 -154.98339844 119.86767578 C-168.95236907 146.75458991 -174.4349658 176.04152328 -174.3125 206.0625 C-174.31100952 206.96497467 -174.30951904 207.86744934 -174.3079834 208.79727173 C-174.25226387 227.56456502 -172.74054862 245.05805716 -167 263 C-166.37076838 265.29050839 -165.74585729 267.58220752 -165.125 269.875 C-151.26754541 317.86780606 -117.36834023 355.37741254 -76 382 C-75.15050781 382.55429687 -74.30101562 383.10859375 -73.42578125 383.6796875 C-66.94094138 387.75335601 -60.03871004 390.89433231 -53.09765625 394.09765625 C-48.34433933 396.29174786 -43.66156694 398.61767586 -39 401 C-39 402.32 -39 403.64 -39 405 C-44.30598719 404.44256166 -48.88499766 403.13573803 -53.8125 401.0625 C-54.91283569 400.60170044 -54.91283569 400.60170044 -56.03540039 400.1315918 C-85.08189481 387.61968255 -115.28259904 367.02405949 -135 342 C-135.65613281 341.19304687 -136.31226563 340.38609375 -136.98828125 339.5546875 C-144.25772652 330.28388518 -150.12604358 320.18930362 -156 310 C-156.39106934 309.3306543 -156.78213867 308.66130859 -157.18505859 307.97167969 C-163.45338424 297.17480857 -167.84074263 285.74975457 -172 274 C-172.27175049 273.24541504 -172.54350098 272.49083008 -172.82348633 271.71337891 C-174.72817896 266.25688574 -175.99032423 260.79914831 -177.0625 255.125 C-177.22298828 254.30386719 -177.38347656 253.48273438 -177.54882812 252.63671875 C-177.86644752 251.00142531 -178.17811259 249.36496098 -178.48301697 247.72724915 C-178.81320743 245.98538992 -179.15745703 244.24609816 -179.51991272 242.51066589 C-180.8948695 235.65947184 -181.32091179 229.08293904 -181.3359375 222.10546875 C-181.3459227 220.44249504 -181.3459227 220.44249504 -181.35610962 218.7459259 C-181.36617739 216.40884034 -181.37092847 214.07172637 -181.37060547 211.73461914 C-181.37494155 208.2346797 -181.41122397 204.73604219 -181.44921875 201.23632812 C-181.56969297 177.16851668 -177.70953285 153.17304229 -168 131 C-167.59394531 129.98421875 -167.18789062 128.9684375 -166.76953125 127.921875 C-155.80274205 101.01177042 -138.91860834 78.87275582 -119 58 C-118.24460938 57.20207031 -117.48921875 56.40414062 -116.7109375 55.58203125 C-90.6406741 28.70713009 -53.64709473 10.76403299 -17.625 2 C-16.35100342 1.68820801 -16.35100342 1.68820801 -15.05126953 1.37011719 C-9.92642183 0.20356824 -5.25761351 -0.37304575 0 0 Z " fill="#121312" transform="translate(220,41)"/>
<path d="M0 0 C7.0245033 -0.28618 13.25718391 0.40291718 20.0625 2.125 C21.43039673 2.4638623 21.43039673 2.4638623 22.82592773 2.80957031 C62.19824375 12.8509704 103.51891421 34.59948143 129 67 C129.40863281 67.51272461 129.81726563 68.02544922 130.23828125 68.55371094 C146.99096809 89.70692749 161.27573442 113.40698039 170 139 C170.36609375 139.99902344 170.7321875 140.99804688 171.109375 142.02734375 C176.84761984 158.11649947 180.31613568 175.78183765 180.30078125 192.84375 C180.30506638 193.93353149 180.3093515 195.02331299 180.31376648 196.14611816 C180.31946951 198.43855094 180.32004006 200.73100179 180.31567383 203.0234375 C180.31253298 206.46387002 180.33595917 209.90342448 180.36132812 213.34375 C180.41214942 230.63014996 179.24068754 247.41112443 174.0625 264 C173.79872559 264.8768042 173.53495117 265.7536084 173.26318359 266.65698242 C172.74707542 268.36108638 172.22471059 270.06331349 171.69482422 271.76318359 C171.11045942 273.64440293 170.55390175 275.53422809 170.00390625 277.42578125 C167.3608351 286.10680161 163.22860598 294.01167546 159 302 C158.5776709 302.80598633 158.1553418 303.61197266 157.72021484 304.44238281 C149.22987977 320.57743921 139.95515781 334.38230653 127.36035156 347.55419922 C125.42813534 349.6077858 123.59194669 351.74050883 121.75 353.875 C118.78815302 357.21843463 115.69971688 360.20920428 112.28125 363.08203125 C110.60995003 364.48718242 108.96792348 365.92735111 107.34375 367.38671875 C92.87887594 380.26465808 76.33691555 390.47234966 59 399 C57.74473568 399.63791068 56.48952581 400.27592852 55.234375 400.9140625 C45.9166598 405.48935315 45.9166598 405.48935315 41 404 C41.1484375 401.69775391 41.1484375 401.69775391 42 399 C44.4140625 397.32177734 44.4140625 397.32177734 47.625 395.8359375 C49.38541626 394.99724121 49.38541626 394.99724121 51.18139648 394.14160156 C51.80505096 393.85353638 52.42870544 393.56547119 53.07125854 393.26867676 C56.31003974 391.76799689 59.51644432 390.20161553 62.72265625 388.6328125 C63.3569606 388.32323608 63.99126495 388.01365967 64.64479065 387.69470215 C80.46260364 379.89899608 94.81519121 368.9984226 107.73828125 357.07421875 C109.78324667 355.19878414 111.87619475 353.40967467 114 351.625 C137.29474524 331.12562419 155.13394984 299.4736262 164 270 C164.48905857 268.74567878 164.98847767 267.49532924 165.5 266.25 C182.72294109 219.72933848 174.987876 165.84876353 154.9921875 121.77880859 C131.26383788 70.42766986 89.98323362 34.14166183 37.27148438 14.37475586 C25.53099216 10.15087446 13.44136608 7.11083626 1 6 C0 5 0 5 -0.0625 2.4375 C-0.041875 1.633125 -0.02125 0.82875 0 0 Z " fill="#151515" transform="translate(285,41)"/>
<path d="M0 0 C7.22708425 4.15668189 12.46972157 10.23547353 15.671875 17.90234375 C15.98309076 20.63319194 16.1495856 23.05814209 16.109375 25.77734375 C16.10252686 26.48479736 16.09567871 27.19225098 16.08862305 27.92114258 C15.86316034 35.24656951 13.98470686 39.29299499 9.234375 44.65234375 C-0.05092354 52.80528881 -6.62106911 54.74913237 -18.73828125 54.375 C-24.58961826 53.95225297 -28.2376916 52.091019 -32.328125 47.90234375 C-32.98039063 47.28746094 -33.63265625 46.67257813 -34.3046875 46.0390625 C-40.13454847 40.05325875 -42.3445505 33.85218834 -42.890625 25.58984375 C-42.63263083 17.92526705 -39.51017712 11.05691701 -34.06640625 5.66015625 C-24.27403915 -2.14136597 -12.07730339 -3.98324208 0 0 Z " fill="#0C0D0D" transform="translate(266.328125,3.09765625)"/>
<path d="M0 0 C1.26255628 0.64644473 2.51380338 1.31536866 3.75390625 2.00390625 C4.41060303 2.36516602 5.0672998 2.72642578 5.74389648 3.09863281 C15.33988216 8.62824081 21.79284901 17.03431362 25.31640625 27.56640625 C26.15601056 33.32092502 26.70585636 38.36745043 23.51953125 43.41015625 C21.31640625 45.56640625 21.31640625 45.56640625 17.44140625 46.12890625 C11.72274154 45.73634485 8.5112092 42.68328726 4.44140625 38.87890625 C2.15275927 35.31130949 2.17785176 34.95593407 2.62890625 31.06640625 C2.88180285 28.74665993 2.88180285 28.74665993 2.31640625 26.56640625 C0.03158228 24.58652891 -2.30587974 23.34863164 -5 21.984375 C-7.59370734 20.61390082 -9.51953575 19.15415653 -11.68359375 17.19140625 C-14.27006853 14.34690471 -14.27006853 14.34690471 -16.68359375 14.56640625 C-17.19150896 19.89951594 -16.02985288 22.42761206 -12.68359375 26.56640625 C-11.69359375 27.30890625 -10.70359375 28.05140625 -9.68359375 28.81640625 C-6.1115921 31.58269325 -5.16864189 34.99535525 -3.6640625 39.140625 C-0.9816286 45.77724433 4.6533264 49.60365559 10.31640625 53.56640625 C8.70103181 57.46558593 6.03715752 60.27934397 3.19140625 63.31640625 C2.72347656 63.82300781 2.25554687 64.32960938 1.7734375 64.8515625 C0.62514084 66.09359766 -0.52868047 67.33052119 -1.68359375 68.56640625 C-8.43625949 66.09908608 -15.05967877 63.3594904 -21.68359375 60.56640625 C-21.76996094 59.41785156 -21.85632813 58.26929688 -21.9453125 57.0859375 C-23.35314136 40.71373676 -27.67122339 27.22547159 -39.68359375 15.56640625 C-39.68359375 14.90640625 -39.68359375 14.24640625 -39.68359375 13.56640625 C-38.67941406 13.07011719 -37.67523438 12.57382813 -36.640625 12.0625 C-35.25900245 11.37652788 -33.87750092 10.69031199 -32.49609375 10.00390625 C-31.77301025 9.64619141 -31.04992676 9.28847656 -30.30493164 8.91992188 C-26.81397695 7.18077081 -23.35858724 5.41335936 -19.97265625 3.4765625 C-18.86664063 2.84621094 -17.760625 2.21585938 -16.62109375 1.56640625 C-15.14962891 0.70015625 -15.14962891 0.70015625 -13.6484375 -0.18359375 C-8.60476229 -2.31004443 -5.05963154 -1.96912489 0 0 Z " fill="#0B0B0B" transform="translate(383.68359375,159.43359375)"/>
<path d="M0 0 C1.40076053 0.77561399 2.79379957 1.56530111 4.1796875 2.3671875 C5.66901072 3.19422572 7.1599175 4.0184183 8.65234375 4.83984375 C9.38855957 5.24734863 10.12477539 5.65485352 10.88330078 6.07470703 C15.81391547 8.72573013 20.93937619 10.97365813 26.0546875 13.2421875 C24.61917927 16.53067318 22.81855229 18.64146355 20.3046875 21.1796875 C10.10893133 32.6337221 8.59344586 45.54058157 7.0546875 60.2421875 C0.38802083 62.90885417 -6.27864583 65.57552083 -12.9453125 68.2421875 C-14.79102267 66.16875984 -16.62156807 64.08478861 -18.4453125 61.9921875 C-18.96996094 61.40566406 -19.49460937 60.81914062 -20.03515625 60.21484375 C-20.53144531 59.64121094 -21.02773437 59.06757813 -21.5390625 58.4765625 C-21.99990234 57.95288086 -22.46074219 57.42919922 -22.93554688 56.88964844 C-23.9453125 55.2421875 -23.9453125 55.2421875 -23.9453125 51.2421875 C-22.1171875 49.71484375 -22.1171875 49.71484375 -19.6953125 48.3046875 C-14.04422713 44.74070095 -11.41500163 41.67377206 -9.1953125 35.3671875 C-7.36355002 30.45073701 -4.87001173 27.87870181 -0.75 24.71484375 C1.3049281 23.18527797 1.3049281 23.18527797 3.0546875 20.2421875 C3.22167982 17.11696917 3.22167982 17.11696917 3.0546875 14.2421875 C0.25906034 14.32690347 -1.48512494 14.81774266 -3.5546875 16.7265625 C-4.11671875 17.32984375 -4.67875 17.933125 -5.2578125 18.5546875 C-8.78834427 22.33406732 -12.22826592 24.17330742 -16.9453125 26.2421875 C-16.88730469 26.89445312 -16.82929687 27.54671875 -16.76953125 28.21875 C-16.35490232 36.25070463 -16.35490232 36.25070463 -19.1328125 39.6796875 C-23.02233152 43.22347149 -25.68435203 45.37408144 -31.0078125 45.6796875 C-34.9453125 45.2421875 -34.9453125 45.2421875 -37.16015625 43.6328125 C-40.68452202 38.91309291 -39.5511276 32.84906808 -38.9453125 27.2421875 C-36.11723531 16.51773747 -27.69333874 7.43719282 -18.45703125 1.6953125 C-12.09337715 -1.74241263 -6.82545299 -3.41730287 0 0 Z " fill="#0D0D0D" transform="translate(135.9453125,159.7578125)"/>
<path d="M0 0 C1.9490625 0.2475 1.9490625 0.2475 3.9375 0.5 C11.10484937 1.28762081 17.89295693 1.20970946 25 0 C25.20753821 10.53518456 24.56944951 20.83162772 23.625 31.3125 C23.48575901 32.9076582 23.34717699 34.50287404 23.20922852 36.09814453 C22.93497022 39.2672712 22.65839458 42.43618211 22.38037109 45.60498047 C21.86414039 51.52554641 21.39958263 57.44999997 20.9375 63.375 C20.12287985 73.67986125 19.21796845 83.97465151 18.25439453 94.26660156 C17.98664668 97.14347767 17.72553358 100.02091383 17.46484375 102.8984375 C17.28927097 104.80731085 17.11349651 106.71616567 16.9375 108.625 C16.81858398 109.94999512 16.81858398 109.94999512 16.69726562 111.30175781 C16.62056641 112.12256836 16.54386719 112.94337891 16.46484375 113.7890625 C16.399021 114.50787598 16.33319824 115.22668945 16.26538086 115.96728516 C16 118 16 118 15.5 119.95825195 C14.93233387 122.27631439 14.72162919 124.4999497 14.53515625 126.87890625 C14.45716797 127.79994141 14.37917969 128.72097656 14.29882812 129.66992188 C14.14098454 131.60187517 13.98735348 133.53417716 13.83789062 135.46679688 C13.75861328 136.38654297 13.67933594 137.30628906 13.59765625 138.25390625 C13.53070557 139.09252197 13.46375488 139.9311377 13.39477539 140.79516602 C13 143 13 143 11 146 C7.82895793 118.83254399 5.19912309 91.70848586 3.52471924 64.40715027 C3.0989919 57.47745625 2.63296438 50.55108896 2.15234375 43.625 C2.01050132 41.56649301 1.86873623 39.50798069 1.72705078 37.44946289 C1.52266095 34.48019759 1.31764438 31.51098743 1.10980225 28.54196167 C-0.24803086 9.07215532 -0.24803086 9.07215532 0 0 Z " fill="#080808" transform="translate(241,300)"/>
<path d="M0 0 C15.18 0 30.36 0 46 0 C46 2.64 46 5.28 46 8 C35.44 8 24.88 8 14 8 C17.25614871 15.81475689 20.4529709 23.01069854 24.5625 30.3125 C25.6279183 32.23869025 26.69166962 34.16580332 27.75390625 36.09375 C28.29289551 37.07085937 28.83188477 38.04796875 29.38720703 39.0546875 C42.94180415 63.80834472 56.05506217 89.16518651 65 116 C65.45113159 114.9018396 65.45113159 114.9018396 65.91137695 113.78149414 C73.02473161 96.57291709 80.87796481 79.78448271 89.71875 63.39794922 C91.07427704 60.86098531 92.39970769 58.31001913 93.71875 55.75390625 C98.40629084 46.67901191 103.23136217 37.75521763 108.48974609 28.99780273 C112.36220651 22.50527544 115.7369988 15.81772767 119 9 C117.16888672 9.01740234 117.16888672 9.01740234 115.30078125 9.03515625 C105.80479026 9.0970005 96.45713334 8.95080694 87 8 C86.95758277 5.66705225 86.95907063 3.33297433 87 1 C88 0 88 0 89.79066467 -0.12025452 C90.57009933 -0.11803391 91.349534 -0.11581329 92.15258789 -0.11352539 C93.03342545 -0.11344986 93.914263 -0.11337433 94.8217926 -0.11329651 C95.77907761 -0.10813522 96.73636261 -0.10297394 97.72265625 -0.09765625 C99.18547279 -0.09553383 99.18547279 -0.09553383 100.67784119 -0.09336853 C103.80609143 -0.08775133 106.93427123 -0.07519593 110.0625 -0.0625 C112.17773334 -0.05748722 114.29296781 -0.05292393 116.40820312 -0.04882812 C121.60549296 -0.03777631 126.80274145 -0.02102146 132 0 C130.92247697 3.38471105 129.84736723 6.57813426 128.109375 9.6796875 C127.7369165 10.34863037 127.36445801 11.01757324 126.98071289 11.70678711 C126.57457764 12.42229736 126.16844238 13.13780762 125.75 13.875 C125.31743896 14.64529541 124.88487793 15.41559082 124.43920898 16.20922852 C117.90657316 27.78612379 111.15234026 39.23880072 104.4140625 50.69677734 C99.21033168 59.54884923 94.22838469 68.37979093 89.73828125 77.6171875 C87.50582639 81.96169516 84.97394453 86.08252832 82.41455078 90.23950195 C79.20979678 95.50582159 76.45628526 100.93775007 73.75610352 106.47607422 C71.44030107 111.20198514 68.91725668 115.62411498 66 120 C62.31578281 117.5438552 61.16813574 114.73967835 59.3359375 110.8671875 C58.62490459 109.40517832 57.91229519 107.94393497 57.19824219 106.48339844 C56.83436401 105.7361853 56.47048584 104.98897217 56.09558105 104.21911621 C54.40919662 100.8033187 52.63759782 97.43482778 50.8515625 94.0703125 C50.50766983 93.42179321 50.16377716 92.77327393 49.8094635 92.10510254 C48.74988581 90.110712 47.68762346 88.11776915 46.625 86.125 C46.25660004 85.43233032 45.88820007 84.73966064 45.50863647 84.02600098 C40.83699302 75.24262938 36.13960589 66.47606596 31.21923828 57.82861328 C29.06945472 54.02901921 27.08658661 50.1760728 25.16015625 46.2578125 C22.07862605 40.04904216 18.65643539 34.08654507 15.125 28.125 C13.89550283 26.03144406 12.66633474 23.93769483 11.4375 21.84375 C10.8496875 20.84472656 10.261875 19.84570312 9.65625 18.81640625 C7.46666389 15.09307703 5.2859968 11.36499212 3.125 7.625 C2.50882813 6.56539063 1.89265625 5.50578125 1.2578125 4.4140625 C0 2 0 2 0 0 Z " fill="#0C0C0C" transform="translate(187,349)"/>
<path d="M0 0 C6.12883988 4.83159084 9.74691297 11.18001755 11.87109375 18.61328125 C12.09814453 22.04833984 12.09814453 22.04833984 12.06640625 25.76171875 C12.06357635 26.41911041 12.06074646 27.07650208 12.05783081 27.7538147 C12.04672822 29.83216358 12.02164361 31.91006491 11.99609375 33.98828125 C11.98605106 35.40624373 11.97692748 36.82421304 11.96875 38.2421875 C11.9468218 41.69936162 11.91236193 45.15627767 11.87109375 48.61328125 C2.19227498 44.95681656 -2.60619853 35.64180685 -7.71557617 27.11083984 C-8.11623291 26.44391113 -8.51688965 25.77698242 -8.9296875 25.08984375 C-9.28200439 24.49252441 -9.63432129 23.89520508 -9.99731445 23.27978516 C-11.2300017 21.46439721 -12.4594497 20.0393528 -14.12890625 18.61328125 C-18.17587315 17.93403011 -19.88036816 18.46871444 -23.453125 20.546875 C-24.58454834 21.36745328 -25.7055758 22.20253413 -26.81640625 23.05078125 C-32.84365579 27.51819776 -32.84365579 27.51819776 -36.12890625 28.61328125 C-46.5204281 8.59682522 -46.5204281 8.59682522 -45.12890625 2.61328125 C-33.42688724 -9.96638919 -13.48910839 -8.78648345 0 0 Z " fill="#131414" transform="translate(232.12890625,90.38671875)"/>
<path d="M0 0 C1.65977153 1.16382386 3.2563568 2.4169677 4.8359375 3.6875 C4.31971528 9.79203258 2.35011154 14.60228414 -0.2265625 20.125 C-0.79213867 21.36540039 -0.79213867 21.36540039 -1.36914062 22.63085938 C-2.29280608 24.65356979 -3.22453204 26.67212257 -4.1640625 28.6875 C-9.55870589 27.59628613 -13.01511814 23.95527982 -17.19140625 20.5234375 C-19.96467118 18.44011213 -19.96467118 18.44011213 -22.86328125 18.73828125 C-29.67962563 21.55045728 -32.98860636 29.6772328 -36.43359375 35.73828125 C-42.6260711 46.2920519 -42.6260711 46.2920519 -48.1640625 48.6875 C-49.45917258 46.09727984 -49.29355983 44.20262134 -49.296875 41.3046875 C-49.29816406 40.21929687 -49.29945313 39.13390625 -49.30078125 38.015625 C-49.29691406 36.87609375 -49.29304688 35.7365625 -49.2890625 34.5625 C-49.29292969 33.44617188 -49.29679687 32.32984375 -49.30078125 31.1796875 C-49.28704482 19.53119116 -48.70450617 11.71694881 -40.4921875 2.890625 C-29.88239763 -6.94046469 -12.24135966 -7.42436254 0 0 Z " fill="#1A1A1A" transform="translate(313.1640625,89.3125)"/>
<path d="M0 0 C1.52734375 1.84765625 1.52734375 1.84765625 2.9375 4.0625 C5.36220907 7.03609926 6.49265244 7.90319163 10.31640625 8.6328125 C17.04455836 8.73270023 22.01627945 7.92820367 28 5 C31.65851829 5 33.84137265 6.48950406 36.8125 8.4375 C43.36530001 12.69559289 50.34515908 13.32665751 58 14 C58 14.99 58 15.98 58 17 C50.25787702 21.51494547 42.44607327 25.01529742 34 28 C33.15695312 28.32226562 32.31390625 28.64453125 31.4453125 28.9765625 C22.47022347 32.12520029 11.95124975 32.5979011 3.01953125 29.03515625 C-6.92646982 23.93710928 -13.46282356 15.54910857 -17 5 C-17 4.01 -17 3.02 -17 2 C-15.10787298 1.46585888 -13.21108364 0.94821671 -11.3125 0.4375 C-10.25675781 0.14746094 -9.20101563 -0.14257812 -8.11328125 -0.44140625 C-4.90197671 -1.01758762 -3.0520474 -1.12498675 0 0 Z " fill="#0A0A0A" transform="translate(324,312)"/>
<path d="M0 0 C1.72926874 0.31193464 3.45841044 0.62457362 5.1875 0.9375 C6.15042969 1.11152344 7.11335938 1.28554688 8.10546875 1.46484375 C10.74239972 1.9523735 13.3719905 2.46671105 16 3 C14.51081154 11.9192883 9.74639885 20.0016618 3 26 C-6.79769688 32.22505603 -18.21992181 32.12408411 -29.43359375 30.50390625 C-39.98247323 28.02428916 -50.51945963 23.86903626 -59 17 C-59.33 16.34 -59.66 15.68 -60 15 C-59.04480469 14.91363281 -58.08960937 14.82726562 -57.10546875 14.73828125 C-47.29514387 13.67215422 -39.34552339 11.56368226 -31 6 C-28.30561601 6.28361937 -26.18124441 6.91941262 -23.70703125 8.01953125 C-18.89526219 9.76232206 -14.03625933 9.67559576 -9 9 C-4.95927864 7.02680727 -2.61692796 3.54991967 0 0 Z " fill="#050505" transform="translate(183,311)"/>
<path d="M0 0 C4.53988861 2.67052271 7.86270755 5.64693997 10.5625 10.1875 C12.05235797 16.59388927 11.84136979 22.2025183 8.59765625 28.015625 C5.41265928 32.21523319 1.16079456 35.21723515 -3.8125 36.875 C-9.62362759 37.43945666 -15.28556366 37.75251988 -20.2421875 34.31640625 C-24.4437724 30.45972758 -27.35284263 26.57680285 -28.32421875 20.8671875 C-28.51381647 15.64998134 -28.33099543 10.78353196 -25.2578125 6.41015625 C-17.8526569 -1.45531983 -10.26572921 -3.02923157 0 0 Z " fill="#F4F4F4" transform="translate(261.8125,11.125)"/>
<path d="M0 0 C2.43359375 1.03515625 2.43359375 1.03515625 4 2 C4.7932403 20.15638914 4.7932403 20.15638914 0 26 C-4.29626581 30.67037885 -9.018582 32.69620622 -15.296875 33.3359375 C-23.37512014 33.42732036 -31.52830399 33.13607202 -37.76953125 27.36328125 C-38.17558594 26.91339844 -38.58164062 26.46351563 -39 26 C-37.96552734 25.19949219 -37.96552734 25.19949219 -36.91015625 24.3828125 C-29.14088294 18.22281254 -21.46508341 11.78496669 -16.8125 2.875 C-13.33624168 -2.3640418 -5.45457898 -0.73464532 0 0 Z " fill="#111111" transform="translate(400,284)"/>
<path d="M0 0 C4.17297664 0.18665706 5.64016774 0.7133372 8.84912109 3.61523438 C11.02687532 6.40314426 12.91057842 9.38310178 14.81542969 12.36132812 C19.0471234 18.44768673 25.89443561 22.87073775 31.95068359 26.99414062 C27.3988082 32.08153077 23.91702901 33.76178193 17.11083984 34.29492188 C15.74502509 34.30935412 14.37905931 34.31310172 13.01318359 34.30664062 C11.99708008 34.33081055 11.99708008 34.33081055 10.96044922 34.35546875 C4.72458497 34.36144753 0.53834446 32.55877277 -4.73681641 29.36914062 C-11.29415699 22.63457462 -11.47497462 15.11739592 -11.38525391 6.15429688 C-10.6834162 -0.44787414 -5.65255155 0.15622968 0 0 Z " fill="#060606" transform="translate(113.04931640625,283.005859375)"/>
<path d="M0 0 C4.04070117 1.79509709 6.54162779 4.31244169 9 8 C9.74054213 13.00296488 9.55809687 16.94154042 7.1875 21.4375 C1.9309228 27.59520472 1.9309228 27.59520472 -3.234375 28.30859375 C-8.07477614 28.55662673 -11.18632576 28.43073251 -15 25.25 C-18.72824919 21.70099356 -20.30530064 18.33892057 -20.5 13.1875 C-20.42628754 8.20453771 -18.9269293 5.78730665 -15.5078125 2.27734375 C-11.20793467 -1.36529887 -5.31160394 -0.61731285 0 0 Z " fill="#0B0B0B" transform="translate(259,257)"/>
<path d="M0 0 C3.82158012 2.43191462 5.32820787 4.48462362 6.75 8.75 C7.23101262 13.75253129 6.68263893 17.0678971 4.01171875 21.23828125 C1.90414528 23.76345442 -0.15927306 24.71975769 -3.25 25.75 C-7.71232042 26.14143162 -11.39416381 26.14687115 -15.25 23.75 C-18.69552921 19.18700186 -19.91950697 15.61855484 -19.63671875 9.89453125 C-18.82248327 5.37922542 -16.4045487 2.68612057 -12.9375 -0.125 C-8.28014967 -2.07458851 -4.66898443 -1.79576324 0 0 Z " fill="#060606" transform="translate(259.25,474.25)"/>
<path d="M0 0 C4.06662662 1.55271198 5.57519602 2.36279402 8 6 C8.77286121 10.7180481 8.42364132 14.19654232 6.1875 18.4375 C3.88784061 21.13138671 2.26106514 22.79694714 -1.3046875 23.37109375 C-8.28463556 23.55142675 -8.28463556 23.55142675 -12 20.6875 C-15.02624614 16.62098175 -16.49996268 14.26520674 -16.39453125 9.0703125 C-15.69325942 5.39037119 -13.64365677 3.58071256 -11 1 C-7.54641994 -0.72679003 -3.78326166 -0.36243011 0 0 Z " fill="#070707" transform="translate(257,18)"/>
<path d="M0 0 C1.93938819 2.90908228 2.96774957 5.40862379 4.125 8.6875 C4.47820312 9.68136719 4.83140625 10.67523438 5.1953125 11.69921875 C5.46085938 12.45847656 5.72640625 13.21773438 6 14 C6.66 12.35 7.32 10.7 8 9 C8.33 9.66 8.66 10.32 9 11 C9.66 11.33 10.32 11.66 11 12 C9.02 14.97 9.02 14.97 7 18 C3.28303919 15.52202613 2.60056011 13.42793626 0.8125 9.375 C0.28269531 8.18648438 -0.24710938 6.99796875 -0.79296875 5.7734375 C-1.19128906 4.85820312 -1.58960938 3.94296875 -2 3 C-1.34 3 -0.68 3 0 3 C0 2.01 0 1.02 0 0 Z " fill="#343434" transform="translate(246,451)"/>
<path d="M0 0 C0.33 0.66 0.66 1.32 1 2 C1.66 2.33 2.32 2.66 3 3 C1.02 5.97 1.02 5.97 -1 9 C-1.66 8.67 -2.32 8.34 -3 8 C-3 7.34 -3 6.68 -3 6 C-2.34 6 -1.68 6 -1 6 C-0.67 4.02 -0.34 2.04 0 0 Z " fill="#262626" transform="translate(254,460)"/>
<path d="M0 0 C1.65 0 3.3 0 5 0 C4.2884375 0.495 4.2884375 0.495 3.5625 1 C1.14208385 4.09813267 1.31801083 7.12026792 1 11 C0.67 11 0.34 11 0 11 C0 7.37 0 3.74 0 0 Z " fill="#5A5A5A" transform="translate(241,300)"/>
</svg>
